<svg width="60" height="38" viewBox="0 0 60 38" fill="none" xmlns="http://www.w3.org/2000/svg">
<path d="M37.4853 18.7482C37.4853 29.1048 29.0956 37.4964 18.7427 37.4964C8.38977 37.4964 0 29.103 0 18.7482C0 8.39347 8.39183 0 18.7427 0C29.0935 0 37.4853 8.39347 37.4853 18.7482Z" fill="#E2574C"/>
<path d="M41.2503 0C37.0468 0 33.1772 1.40052 30.05 3.7385L30.065 3.74035C30.68 4.33461 31.3586 4.75285 31.8817 5.43697L27.982 5.49887C27.3709 6.11575 26.814 6.78691 26.2891 7.4844H33.1659C33.689 8.11238 34.1726 8.65811 34.6114 9.35169H25.0424C24.6918 9.95541 24.3675 10.576 24.0844 11.2208H35.7008C36.0045 11.8638 36.2764 12.3495 36.5071 13.0301H23.3963C23.1882 13.677 23.0102 14.3388 22.8751 15.0136H37.0563C37.1951 15.6624 37.3018 16.2622 37.375 16.8735H22.5938C22.5319 17.4904 22.5 18.1165 22.5 18.7484H37.4818C37.4818 19.4122 37.4349 20.027 37.3674 20.6233H22.5938C22.6575 21.2589 22.7513 21.8832 22.8751 22.4982H37.0337C36.8875 23.1056 36.7187 23.7168 36.5069 24.3505H23.3531C23.5518 24.9917 23.7938 25.6141 24.058 26.2215H35.7008C35.3784 26.904 35.0128 27.4495 34.6098 28.0888H25.0088C25.3876 28.745 25.8057 29.3711 26.2593 29.9711L33.1661 30.0741C32.5773 30.7809 31.8219 31.2065 31.1336 31.8252C31.1711 31.8553 30.0331 31.8215 27.7926 31.786C31.2011 35.3032 35.965 37.4966 41.2501 37.4966C51.6048 37.4966 59.9983 29.103 59.9983 18.7484C59.9983 8.39388 51.6067 0 41.2503 0Z" fill="#F4B459"/>
</svg>
