<svg width="60" height="44" viewBox="0 0 60 44" fill="none" xmlns="http://www.w3.org/2000/svg">
<path d="M3.74995 0H56.2501C58.3201 0 60 1.67992 60 3.7518V39.3768C60 41.4469 58.3201 43.1268 56.2501 43.1268H3.74995C1.67807 43.127 0 41.4469 0 39.377V3.7518C0 1.67992 1.67992 0 3.74995 0Z" fill="#1717D0"/>
<path d="M9.67506 15L3.75 28.112H10.8431L11.7225 26.0214H13.7325L14.6118 28.112H22.4193V26.5164L23.115 28.112H27.1537L27.8494 26.4826V28.112H44.087L46.0614 26.0757L47.9101 28.112L56.2501 28.1288L50.3063 21.5926L56.2501 15H48.0395L46.1175 16.9987L44.327 15H26.6626L25.1458 18.3843L23.5934 15H16.515V16.5413L15.7276 15H9.67506ZM11.0475 16.8619H14.5051L18.4352 25.7532V16.8619H22.2227L25.2583 23.2369L28.0559 16.8619H31.8245V26.2706H29.5314L29.5127 18.898L26.1695 26.2706H24.1182L20.7563 18.898V26.2706H16.0388L15.1444 24.1613H10.3126L9.42006 26.2688H6.89247L11.0475 16.8619ZM33.9225 16.8619H43.2469L46.0988 19.9425L49.0426 16.8619H51.8945L47.5614 21.5907L51.8945 26.2651H48.9133L46.0614 23.1487L43.1026 26.2651H33.9225V16.8619ZM12.7295 18.4538L11.1376 22.2114H14.3196L12.7295 18.4538ZM36.2252 18.81V20.5275H41.312V22.4419H36.2252V24.317H41.9308L44.582 21.5552L42.0433 18.8084H36.2252V18.81Z" fill="white"/>
</svg>
