<svg width="60" height="40" viewBox="0 0 60 40" fill="none" xmlns="http://www.w3.org/2000/svg">
<path d="M56 40H4C1.79167 40 0 38.2083 0 36V4C0 1.79167 1.79167 0 4 0H56C58.2083 0 60 1.79167 60 4V36C60 38.2083 58.2083 40 56 40ZM46.3217 28.15V30C46.5867 30.0367 46.8917 30.0583 47.2017 30.0583H47.2283C49.5517 30.0583 50.6533 29.155 51.6033 26.48L55.7933 14.73H53.37L50.56 23.8067H50.51L47.7 14.73H45.2067L49.2483 25.9183L49.0317 26.5983C48.885 27.5133 48.1 28.2033 47.1567 28.2033C47.11 28.2033 47.0633 28.2017 47.0167 28.1983H47.0233C46.8367 28.19 46.47 28.1683 46.3233 28.15H46.3217ZM9.52167 13.4233H9.47833C8.00167 13.465 6.72667 14.2883 6.04833 15.4917L6.03833 15.5117C4.63167 17.9317 5.52667 21.635 7.08333 23.89C7.81333 24.9567 8.61333 26 9.66833 26H9.725C10.1667 25.9717 10.575 25.8567 10.9433 25.6717L10.925 25.68C11.37 25.4567 11.8933 25.325 12.4467 25.32C12.9817 25.3233 13.4883 25.4533 13.9333 25.68L13.915 25.6717C14.2733 25.8583 14.695 25.9717 15.1433 25.9817H15.1467H15.1917C16.3667 25.96 17.1033 24.8817 17.755 23.9317C18.22 23.2583 18.605 22.4833 18.875 21.655L18.8933 21.5917V21.575L18.8633 21.5617C17.5633 20.97 16.675 19.6867 16.6667 18.1933V18.1917C16.68 16.865 17.3783 15.705 18.425 15.0467L18.44 15.0383L18.47 15.0183C17.7883 14.0383 16.68 13.395 15.42 13.3617H15.415C15.3567 13.3617 15.2967 13.3617 15.2383 13.3617C14.495 13.4017 13.8017 13.58 13.1733 13.8733L13.2083 13.8583C12.9217 13.9983 12.5883 14.1 12.2367 14.1433L12.2217 14.145C11.8417 14.1033 11.495 14 11.1783 13.8433L11.1967 13.8517C10.7083 13.615 10.1367 13.46 9.535 13.42H9.52167V13.4233ZM39.71 16.45C41.1767 16.45 41.9867 17.1367 41.9867 18.3817V19.23L39.01 19.4067C36.2183 19.575 34.7433 20.7067 34.7433 22.6783C34.7633 24.525 36.2633 26.0133 38.1133 26.0133C38.2533 26.0133 38.39 26.005 38.525 25.9883L38.5083 25.99C38.54 25.9917 38.5783 25.9917 38.6167 25.9917C40.065 25.9917 41.3317 25.2117 42.0183 24.0467L42.0283 24.0283H42.0783V25.865H44.2867V18.2217C44.2867 16.005 42.5183 14.575 39.7817 14.575C37.2583 14.575 35.3817 16.0217 35.3067 18.0133H37.4567C37.6967 17.0983 38.515 16.435 39.4883 16.435C39.5667 16.435 39.645 16.44 39.7217 16.4483L39.7117 16.4467L39.71 16.45ZM23.3333 10.5067V25.8667H25.7183V20.6133H29.0133C29.09 20.6183 29.1817 20.62 29.2717 20.62C31.9683 20.62 34.1533 18.435 34.1533 15.7383C34.1533 15.67 34.1517 15.6033 34.15 15.5367V15.5467C34.1533 15.4833 34.155 15.41 34.155 15.335C34.155 12.665 31.9917 10.5017 29.3217 10.5017C29.2417 10.5017 29.1617 10.5033 29.0833 10.5067H29.095H23.3333ZM15.4217 9.33333C14.4317 9.43 13.5683 9.9 12.96 10.6L12.9567 10.605C12.4017 11.2267 12.0633 12.0517 12.0633 12.955C12.0633 13.0333 12.0667 13.1117 12.0717 13.1883V13.1783C12.1283 13.1783 12.1883 13.185 12.255 13.185C13.1883 13.1317 14.0067 12.685 14.5517 12.0067L14.5567 12C15.1017 11.355 15.4333 10.515 15.4333 9.595C15.4333 9.50333 15.43 9.41167 15.4233 9.32V9.33167L15.4217 9.33333ZM39.1483 24.1683C37.885 24.1683 37.0667 23.56 37.0667 22.62C37.0667 21.65 37.85 21.0917 39.3333 21.0033L41.9833 20.8367V21.705C41.925 23.085 40.7917 24.18 39.4033 24.18C39.3133 24.18 39.225 24.175 39.1367 24.1667L39.1483 24.1683ZM28.4517 18.6183H25.7117V12.5167H28.4617C28.5783 12.5 28.7133 12.49 28.8517 12.49C30.4367 12.49 31.7217 13.775 31.7217 15.36C31.7217 15.43 31.7183 15.5017 31.7133 15.57V15.56C31.7183 15.62 31.72 15.6917 31.72 15.7633C31.72 17.3533 30.43 18.6433 28.84 18.6433C28.7033 18.6433 28.5667 18.6333 28.435 18.615L28.45 18.6167L28.4517 18.6183Z" fill="black"/>
</svg>
