<svg width="60" height="40" viewBox="0 0 60 40" fill="none" xmlns="http://www.w3.org/2000/svg">
<path d="M56.8 0H3.2C1.43269 0 0 1.5209 0 3.39703V36.603C0 38.4791 1.43269 40 3.2 40H56.8C58.5673 40 60 38.4791 60 36.603V3.39703C60 1.5209 58.5673 0 56.8 0Z" fill="#220E95"/>
<path d="M22.2578 28.3518L24.9267 11.7266H29.1954L26.5247 28.3518H22.2578Z" fill="white"/>
<path d="M41.9338 12.1045C41.088 11.7677 39.7629 11.4062 38.108 11.4062C33.89 11.4062 30.9188 13.6611 30.8936 16.8928C30.8698 19.2817 33.0147 20.6143 34.6339 21.4096C36.2954 22.2244 36.854 22.7442 36.8461 23.4718C36.8356 24.5862 35.5192 25.0953 34.2923 25.0953C32.5837 25.0953 31.676 24.8434 30.2742 24.2226L29.7241 23.9583L29.125 27.6801C30.122 28.1442 31.9657 28.5463 33.88 28.5671C38.3672 28.5671 41.2801 26.338 41.3132 22.8871C41.3293 20.9959 40.192 19.5566 37.7293 18.3701C36.2372 17.601 35.3235 17.0878 35.3332 16.309C35.3332 15.618 36.1066 14.879 37.7777 14.879C39.1736 14.856 40.1848 15.1792 40.9726 15.516L41.3552 15.7078L41.9338 12.1045Z" fill="white"/>
<path d="M52.9241 11.7266H49.6257C48.6038 11.7266 47.8392 12.0226 47.3904 13.1052L41.0508 28.3412H45.5333C45.5333 28.3412 46.2662 26.2926 46.432 25.8428C46.9218 25.8428 51.2763 25.85 51.8989 25.85C52.0265 26.432 52.4182 28.3412 52.4182 28.3412H56.3792L52.9241 11.7266ZM47.6908 22.4618C48.0438 21.5039 49.3915 17.8144 49.3915 17.8144C49.3663 17.8586 49.7419 16.8518 49.9575 16.2276L50.2461 17.661C50.2461 17.661 51.0634 21.6295 51.2342 22.4617H47.6908V22.4618Z" fill="white"/>
<path d="M3.65219 11.7266L3.59766 12.0726C5.28494 12.5062 6.79199 13.1336 8.11141 13.9142L11.8991 28.3254L16.4155 28.3197L23.1358 11.7266H18.6141L14.4348 23.0638L13.9895 20.7599C13.9689 20.6896 13.9466 20.619 13.9238 20.5484L12.4705 13.1302C12.2121 12.0774 11.4626 11.7633 10.5355 11.7266H3.65219Z" fill="white"/>
</svg>
