<svg width="112" height="112" viewBox="0 0 112 112" fill="none" xmlns="http://www.w3.org/2000/svg">
<g filter="url(#filter0_d_116_572)">
<circle cx="56" cy="56" r="50" fill="#1E1F28"/>
</g>
<path d="M84.6667 39.6606L71.3333 29.6606C70.8357 29.2898 70.2444 29.0652 69.6261 29.0122C69.0077 28.9592 68.3868 29.0799 67.8333 29.3606C67.2779 29.6305 66.8107 30.0526 66.4861 30.5779C66.1615 31.1032 65.9929 31.7099 66 32.3273V38.994H29.3333C28.4493 38.994 27.6014 39.3452 26.9763 39.9703C26.3512 40.5954 26 41.4433 26 42.3273C26 43.2114 26.3512 44.0592 26.9763 44.6843C27.6014 45.3095 28.4493 45.6606 29.3333 45.6606H66V52.3273C65.9973 52.9438 66.1676 53.5488 66.4918 54.0732C66.8159 54.5977 67.2807 55.0207 67.8333 55.294C68.3858 55.5786 69.0074 55.7015 69.6266 55.6484C70.2458 55.5953 70.8374 55.3685 71.3333 54.994L84.6667 44.994C85.0807 44.6835 85.4167 44.2809 85.6481 43.818C85.8795 43.3552 86 42.8448 86 42.3273C86 41.8098 85.8795 41.2995 85.6481 40.8366C85.4167 40.3737 85.0807 39.9711 84.6667 39.6606Z" fill="white"/>
<path d="M27.3333 66.3325L40.6667 56.3325C41.1643 55.9616 41.7556 55.7371 42.3739 55.6841C42.9923 55.6311 43.6132 55.7517 44.1667 56.0325C44.7221 56.3023 45.1893 56.7245 45.5139 57.2498C45.8385 57.775 46.0071 58.3818 46 58.9992V65.6659H82.6667C83.5507 65.6659 84.3986 66.017 85.0237 66.6422C85.6488 67.2673 86 68.1151 86 68.9992C86 69.8832 85.6488 70.7311 85.0237 71.3562C84.3986 71.9813 83.5507 72.3325 82.6667 72.3325H46V78.9992C46.0027 79.6157 45.8324 80.2206 45.5082 80.7451C45.1841 81.2696 44.7193 81.6925 44.1667 81.9659C43.6142 82.2505 42.9926 82.3733 42.3734 82.3203C41.7542 82.2672 41.1626 82.0403 40.6667 81.6659L27.3333 71.6659C26.9193 71.3554 26.5833 70.9528 26.3519 70.4899C26.1205 70.027 26 69.5167 26 68.9992C26 68.4817 26.1205 67.9713 26.3519 67.5085C26.5833 67.0456 26.9193 66.643 27.3333 66.3325Z" fill="white"/>
<defs>
<filter id="filter0_d_116_572" x="0" y="0" width="112" height="112" filterUnits="userSpaceOnUse" color-interpolation-filters="sRGB">
<feFlood flood-opacity="0" result="BackgroundImageFix"/>
<feColorMatrix in="SourceAlpha" type="matrix" values="0 0 0 0 0 0 0 0 0 0 0 0 0 0 0 0 0 0 127 0" result="hardAlpha"/>
<feOffset/>
<feGaussianBlur stdDeviation="3"/>
<feComposite in2="hardAlpha" operator="out"/>
<feColorMatrix type="matrix" values="0 0 0 0 1 0 0 0 0 1 0 0 0 0 1 0 0 0 0.63 0"/>
<feBlend mode="normal" in2="BackgroundImageFix" result="effect1_dropShadow_116_572"/>
<feBlend mode="normal" in="SourceGraphic" in2="effect1_dropShadow_116_572" result="shape"/>
</filter>
</defs>
</svg>
