<svg width="112" height="112" viewBox="0 0 112 112" fill="none" xmlns="http://www.w3.org/2000/svg">
<g filter="url(#filter0_d_116_555)">
<circle cx="56" cy="56" r="50" fill="#1E1F28"/>
</g>
<path d="M77.4503 47.1213C74.6771 36.0665 63.938 31.9086 62.999 30.896L65.6396 21.2854C65.6396 21.2854 62.342 20.2202 57.7158 22.2054C51.8346 24.7296 48.5582 21.5107 48.5582 21.5107L51.462 31.0475C50.5502 32.0834 39.1289 36.7255 37.0591 47.6497C36.0083 53.1866 37.5203 60.117 42.3486 64.8308C44.0942 64.1593 46.2672 63.7234 49.0826 63.7234H60.6176C63.2918 63.7234 65.4669 65.8982 65.4669 68.5718C65.4669 68.6939 65.4501 68.8139 65.4416 68.934C75.9574 65.2834 79.3665 54.7424 77.4503 47.1213ZM63.239 56.4539C62.9737 57.0266 62.5674 57.5297 62.0325 57.9551C61.4849 58.3824 60.7859 58.7276 59.952 58.9761C59.5435 59.094 59.095 59.1867 58.6127 59.2477V60.8414H56.2458V59.3339C55.3804 59.2898 54.5445 59.176 53.7569 58.9803C52.8494 58.7571 52.1312 58.4813 51.5606 58.1382C51.4237 58.0539 51.4112 58.0244 51.4112 57.7318V55.6939C51.4112 55.536 51.447 55.536 51.4954 55.536C51.5376 55.536 51.586 55.5486 51.6218 55.5675C51.8176 55.6707 52.024 55.7738 52.2346 55.877C52.74 56.117 53.2622 56.3254 53.7886 56.5002C54.3129 56.6771 54.8393 56.8202 55.351 56.9254C55.8732 57.0328 56.3659 57.0896 56.8082 57.0896C57.9222 57.0896 58.7264 56.8728 59.2698 56.4265C59.8257 55.9696 60.1058 55.4012 60.1058 54.7359C60.1058 54.4032 60.0489 54.0959 59.9373 53.8243C59.8194 53.5358 59.6046 53.2706 59.295 53.0327C59.015 52.8138 58.6234 52.599 58.1348 52.3949C57.6632 52.1969 57.0567 51.9843 56.3324 51.7612C55.3743 51.4539 54.5636 51.1254 53.9235 50.7865C53.298 50.456 52.7948 50.0896 52.4242 49.7001C52.0641 49.3211 51.8051 48.9064 51.6493 48.4665C51.4914 48.0181 51.4113 47.5191 51.4113 46.9865C51.4113 46.3128 51.5798 45.6918 51.9104 45.1402C52.2473 44.5739 52.7189 44.0813 53.3064 43.6708C53.9001 43.2561 54.614 42.9276 55.4206 42.6981C55.6879 42.6244 55.9681 42.5655 56.246 42.515V40.9487H58.6128V42.3761C59.272 42.4014 59.9289 42.4581 60.5627 42.574C61.2492 42.6961 61.9251 42.8982 62.5715 43.1677C62.6936 43.2182 62.7231 43.2477 62.7231 43.3634V45.4729C62.721 45.5044 62.6936 45.5151 62.6389 45.5151C62.5905 45.5151 62.5505 45.5066 62.5273 45.4982C61.9546 45.3024 61.3565 45.1277 60.7501 44.9866C59.8719 44.7824 58.994 44.6771 58.1453 44.6771C57.1009 44.6771 56.2923 44.8814 55.7386 45.2834C55.149 45.715 54.85 46.2729 54.85 46.9445C54.85 47.235 54.9152 47.5129 55.0394 47.7676C55.1658 48.0244 55.3763 48.2707 55.6712 48.496C55.9449 48.7066 56.305 48.9149 56.7767 49.1276C57.2232 49.3339 57.8001 49.5465 58.4823 49.755C59.3982 50.0371 60.1963 50.3403 60.8575 50.6561C61.5039 50.9634 62.043 51.3087 62.4578 51.6834C62.8621 52.0435 63.159 52.4603 63.3464 52.9214C63.5402 53.393 63.637 53.9466 63.637 54.5719C63.637 55.2476 63.5022 55.8792 63.239 56.4539Z" fill="white"/>
<path d="M52.6696 71.4695C54.5941 71.4695 60.6016 71.4695 60.6016 71.4695C62.1956 71.4695 63.4864 70.179 63.4864 68.5873C63.4864 66.9936 62.1956 65.7031 60.6016 65.7031C59.1593 65.7031 56.2765 65.7031 49.0666 65.7031C41.8546 65.7031 39.5721 68.7074 37.0473 71.2295L32.4675 75.2296C32.1706 75.4885 32 75.8612 32 76.2569V89.5475C32 89.7244 32.1032 89.8865 32.2654 89.9602C32.4275 90.0339 32.6169 90.0086 32.7517 89.8907L41.6019 82.3054C41.9136 82.0401 42.3305 81.9286 42.7327 82.0001L56.525 84.5074C57.4874 84.6822 58.4769 84.4611 59.2772 83.8969C59.2772 83.8969 76.8807 71.659 78.18 70.577C79.4182 69.4401 79.4055 67.7917 78.2664 66.5517C77.1292 65.3117 75.0088 65.5749 73.5917 66.6232C72.2946 67.7033 63.436 73.5243 63.436 73.5243H52.6696L52.6359 73.5412C52.0695 73.5222 51.6251 73.0464 51.642 72.4801C51.663 71.9138 52.139 71.4696 52.7033 71.4886L52.6696 71.4695Z" fill="white"/>
<defs>
<filter id="filter0_d_116_555" x="0" y="0" width="112" height="112" filterUnits="userSpaceOnUse" color-interpolation-filters="sRGB">
<feFlood flood-opacity="0" result="BackgroundImageFix"/>
<feColorMatrix in="SourceAlpha" type="matrix" values="0 0 0 0 0 0 0 0 0 0 0 0 0 0 0 0 0 0 127 0" result="hardAlpha"/>
<feOffset/>
<feGaussianBlur stdDeviation="3"/>
<feComposite in2="hardAlpha" operator="out"/>
<feColorMatrix type="matrix" values="0 0 0 0 1 0 0 0 0 1 0 0 0 0 1 0 0 0 0.63 0"/>
<feBlend mode="normal" in2="BackgroundImageFix" result="effect1_dropShadow_116_555"/>
<feBlend mode="normal" in="SourceGraphic" in2="effect1_dropShadow_116_555" result="shape"/>
</filter>
</defs>
</svg>
