<svg width="112" height="112" viewBox="0 0 112 112" fill="none" xmlns="http://www.w3.org/2000/svg">
<g filter="url(#filter0_d_116_564)">
<circle cx="56" cy="56" r="50" fill="#1E1F28"/>
</g>
<path d="M56.2689 24C56.2017 24 56.1076 24 56.0269 24.0163C55.4084 24.1316 54.6689 24.7081 54.1849 26.0252C53.674 27.341 53.5664 29.217 54.0101 31.226C54.4672 33.2105 55.4084 34.921 56.4571 35.9655C57.479 37.01 58.4067 37.2948 59.0252 37.1863C59.6706 37.0914 60.3832 36.4945 60.8672 35.1923C61.3782 33.8847 61.5126 31.9829 61.0555 29.9902C60.5849 27.9826 59.6571 26.2884 58.6084 25.2507C57.721 24.3283 56.9008 24 56.2689 24ZM71.7849 41.5677C70.3059 41.6084 68.437 42.0018 66.6218 42.775C64.5244 43.6974 62.9109 44.9318 62.0235 46.0984C61.1361 47.2243 61.0555 48.0788 61.3378 48.5807C61.6336 49.0826 62.4538 49.5574 64.0269 49.6252C65.6 49.7202 67.7244 49.3268 69.8084 48.4315C71.8924 47.5227 73.5328 46.2747 74.4202 45.1353C75.3076 44.0094 75.3748 43.1277 75.0924 42.6258C74.8101 42.1103 73.9765 41.6627 72.4034 41.6084C72.1882 41.5677 72 41.5677 71.7849 41.5677ZM53.4588 54.1694C52.5714 54.183 51.7647 54.2915 51.0387 54.4814C49.4521 54.8884 48.5378 55.6209 48.242 56.5026C47.9059 57.3843 48.242 58.4423 49.2908 59.5818C50.3933 60.6941 52.2084 61.7657 54.4672 62.3626C56.7126 62.9594 58.8773 62.9458 60.4908 62.5118C62.1176 62.0913 63.0319 61.3452 63.3277 60.4771C63.637 59.5953 63.3277 58.5509 62.2387 57.3979C61.1765 56.2855 59.3613 55.2139 57.1025 54.6306C55.8252 54.2915 54.5748 54.1559 53.4588 54.1694ZM75.0655 62.0506L66.7563 66.0251C67.321 66.0522 68.7328 66.0929 68.7328 66.0929L69.6202 67.273L76.9748 63.407L75.0655 62.0506ZM67.7378 62.0641L60.0202 65.7538C60.7597 65.7944 62.5076 65.8216 63.2067 65.8623L69.9025 62.661L67.7378 62.0641ZM80.1882 63.5291L70.7092 68.6024L72.6588 71.139L82.6756 65.0891L80.1882 63.5291ZM42.7025 64.7635C42.2954 64.7628 41.8895 64.8083 41.4924 64.8992C31.879 67.1374 26.205 67.3273 24.5244 67.3273H24V81.9094C24 81.9094 25.5597 81.6788 28.1546 81.6652C33.1697 81.6652 42.0034 82.5334 50.6084 87.6066C51.0655 87.8915 52.0471 88 53.2706 88C56.5378 88 61.4992 87.2132 62.642 86.7792C74.1513 82.4249 88 70.4743 88 70.4743L83.6303 66.6219C83.6303 66.6219 72.9008 73.5264 71.5429 74.1911C59.2941 80.2545 49.3714 76.4699 49.3714 76.4699C49.3714 76.4699 65.4924 76.8769 70.6689 72.7668L67.6303 68.1547C67.6303 68.1547 56.4975 67.8427 52.5311 67.3137C50.4605 67.0424 45.9832 64.7635 42.7025 64.7635Z" fill="white"/>
<defs>
<filter id="filter0_d_116_564" x="0" y="0" width="112" height="112" filterUnits="userSpaceOnUse" color-interpolation-filters="sRGB">
<feFlood flood-opacity="0" result="BackgroundImageFix"/>
<feColorMatrix in="SourceAlpha" type="matrix" values="0 0 0 0 0 0 0 0 0 0 0 0 0 0 0 0 0 0 127 0" result="hardAlpha"/>
<feOffset/>
<feGaussianBlur stdDeviation="3"/>
<feComposite in2="hardAlpha" operator="out"/>
<feColorMatrix type="matrix" values="0 0 0 0 1 0 0 0 0 1 0 0 0 0 1 0 0 0 0.63 0"/>
<feBlend mode="normal" in2="BackgroundImageFix" result="effect1_dropShadow_116_564"/>
<feBlend mode="normal" in="SourceGraphic" in2="effect1_dropShadow_116_564" result="shape"/>
</filter>
</defs>
</svg>
