<svg width="112" height="112" viewBox="0 0 112 112" fill="none" xmlns="http://www.w3.org/2000/svg">
<g filter="url(#filter0_d_116_504)">
<circle cx="56" cy="56" r="50" fill="#1E1F28"/>
</g>
<path d="M73.5774 69.4923L86.0695 81.9815L81.9424 86.1085L69.4532 73.6165C64.8062 77.3417 59.0261 79.3678 53.0703 79.3594C38.5803 79.3594 26.8203 67.5994 26.8203 53.1094C26.8203 38.6194 38.5803 26.8594 53.0703 26.8594C67.5603 26.8594 79.3203 38.6194 79.3203 53.1094C79.3288 59.0652 77.3026 64.8453 73.5774 69.4923ZM67.7266 67.3281C71.4281 63.5215 73.4953 58.419 73.487 53.1094C73.487 41.8277 64.3491 32.6927 53.0703 32.6927C41.7886 32.6927 32.6536 41.8277 32.6536 53.1094C32.6536 64.3881 41.7886 73.526 53.0703 73.526C58.3799 73.5344 63.4825 71.4672 67.2891 67.7656L67.7266 67.3281ZM56.5061 41.956C55.6461 42.3445 54.8932 42.9359 54.3119 43.6794C53.7307 44.4228 53.3385 45.2962 53.169 46.2246C52.9995 47.153 53.0578 48.1086 53.3389 49.0095C53.62 49.9104 54.1154 50.7296 54.7827 51.397C55.45 52.0643 56.2693 52.5597 57.1702 52.8408C58.0711 53.1218 59.0267 53.1801 59.9551 53.0107C60.8834 52.8412 61.7568 52.449 62.5003 51.8678C63.2438 51.2865 63.8352 50.5336 64.2236 49.6735C64.9901 52.1633 64.9013 54.8379 63.9713 57.2713C63.0413 59.7047 61.3236 61.7568 59.0919 63.1007C56.8603 64.4446 54.243 65.0029 51.6572 64.6867C49.0715 64.3704 46.6659 63.1979 44.8238 61.3558C42.9818 59.5138 41.8092 57.1082 41.493 54.5224C41.1768 51.9366 41.7351 49.3194 43.079 47.0878C44.4229 44.8561 46.475 43.1384 48.9084 42.2084C51.3418 41.2784 54.0164 41.1895 56.5061 41.956Z" fill="white"/>
<defs>
<filter id="filter0_d_116_504" x="0" y="0" width="112" height="112" filterUnits="userSpaceOnUse" color-interpolation-filters="sRGB">
<feFlood flood-opacity="0" result="BackgroundImageFix"/>
<feColorMatrix in="SourceAlpha" type="matrix" values="0 0 0 0 0 0 0 0 0 0 0 0 0 0 0 0 0 0 127 0" result="hardAlpha"/>
<feOffset/>
<feGaussianBlur stdDeviation="3"/>
<feComposite in2="hardAlpha" operator="out"/>
<feColorMatrix type="matrix" values="0 0 0 0 1 0 0 0 0 1 0 0 0 0 1 0 0 0 0.63 0"/>
<feBlend mode="normal" in2="BackgroundImageFix" result="effect1_dropShadow_116_504"/>
<feBlend mode="normal" in="SourceGraphic" in2="effect1_dropShadow_116_504" result="shape"/>
</filter>
</defs>
</svg>
