<svg viewBox="0 0 24 24" fill="none" xmlns="http://www.w3.org/2000/svg">
  <path d="M23.498 6.186C23.222 5.414 22.586 4.778 21.814 4.502C19.854 3.83 12 3.83 12 3.83C12 3.83 4.146 3.83 2.186 4.502C1.414 4.778 0.778 5.414 0.502 6.186C0 8.07 0 12 0 12C0 12 0 15.93 0.502 17.814C0.778 18.586 1.414 19.222 2.186 19.498C4.146 20.17 12 20.17 12 20.17C12 20.17 19.854 20.17 21.814 19.498C22.586 19.222 23.222 18.586 23.498 17.814C24 15.93 24 12 24 12C24 12 24 8.07 23.498 6.186Z" fill="#9CA3AF"/>
  <path d="M9.545 15.568L15.818 12L9.545 8.432V15.568Z" fill="#4B5563"/>
</svg> 