<svg viewBox="0 0 24 24" fill="none" xmlns="http://www.w3.org/2000/svg">
  <path d="M22 12C22 6.477 17.523 2 12 2C6.477 2 2 6.477 2 12C2 16.991 5.657 21.128 10.438 21.878V15.891H7.898V12H10.438V9.797C10.438 7.291 11.93 5.907 14.215 5.907C15.309 5.907 16.453 6.102 16.453 6.102V8.562H15.193C13.95 8.562 13.563 9.333 13.563 10.124V12H16.336L15.893 15.891H13.563V21.878C18.344 21.128 22 16.991 22 12Z" fill="#9CA3AF"/>
  <path d="M15.893 15.891L16.336 12H13.563V10.124C13.563 9.333 13.95 8.562 15.193 8.562H16.453V6.102C16.453 6.102 15.309 5.907 14.215 5.907C11.93 5.907 10.438 7.291 10.438 9.797V12H7.898V15.891H10.438V21.878C11.217 22.026 12.017 22.1 12.813 22.1C13.609 22.1 14.409 22.026 15.188 21.878V15.891H15.893Z" fill="#4B5563"/>
</svg>