<svg viewBox="0 0 24 24" fill="none" xmlns="http://www.w3.org/2000/svg">
  <path d="M19.27 5.33C17.94 4.71 16.5 4.26 15 4C14.89 4.22 14.76 4.52 14.67 4.76C13.06 4.52 11.46 4.52 9.87 4.76C9.78 4.52 9.65 4.22 9.54 4C8.03 4.26 6.59 4.71 5.27 5.33C2.86 8.98 2.13 12.53 2.5 16.03C4.19 17.27 5.83 18.03 7.44 18.53C7.82 18.01 8.16 17.46 8.44 16.87C7.88 16.67 7.34 16.42 6.83 16.13C7 16.01 7.17 15.88 7.33 15.75C10.39 17.19 13.77 17.19 16.79 15.75C16.96 15.88 17.13 16.01 17.29 16.13C16.78 16.42 16.24 16.67 15.68 16.87C15.96 17.46 16.3 18.01 16.68 18.53C18.29 18.03 19.94 17.27 21.62 16.03C22.06 11.89 20.9 8.37 19.27 5.33ZM8.6 13.93C7.69 13.93 6.95 13.12 6.95 12.13C6.95 11.14 7.68 10.33 8.6 10.33C9.52 10.33 10.26 11.14 10.25 12.13C10.25 13.12 9.51 13.93 8.6 13.93ZM15.4 13.93C14.49 13.93 13.75 13.12 13.75 12.13C13.75 11.14 14.48 10.33 15.4 10.33C16.32 10.33 17.06 11.14 17.05 12.13C17.05 13.12 16.32 13.93 15.4 13.93Z" fill="#9CA3AF"/>
  <path d="M8.6 13.93C9.51 13.93 10.25 13.12 10.25 12.13C10.26 11.14 9.52 10.33 8.6 10.33C7.68 10.33 6.95 11.14 6.95 12.13C6.95 13.12 7.69 13.93 8.6 13.93Z" fill="#4B5563"/>
  <path d="M15.4 13.93C16.32 13.93 17.05 13.12 17.05 12.13C17.06 11.14 16.32 10.33 15.4 10.33C14.48 10.33 13.75 11.14 13.75 12.13C13.75 13.12 14.49 13.93 15.4 13.93Z" fill="#4B5563"/>
</svg> 