<svg xmlns="http://www.w2000/svg" viewBox="0 0 300 100" width="300" height="100">
  <rect width="300" height="100" fill="transparent"/>
  <path fill="#FFF" d="M107 22c-13 0-23 10-25 24l-6 46h19l4-31 2-5c3-8 10-12 18-12 11 0 18 7 18 18 0 11-9 18-21 18h-12l-3 19h-16l8-47c1-7 7-12 14-12h31v17h-33zm132-8c-14 0-25 10-28 24l-10 58h19l3-20h15c15 0 27-10 29-25 2-13-5-24-18-24h-10zm-54 0c-14 0-24 10-27 24l-11 58h18l3-20h16c14 0 26-10 28-25 2-13-5-24-18-24h-9zm53 17h9c5 0 8 4 8 9 0 6-5 10-12 10h-8l3-19zm-53 0h9c5 0 8 4 8 9 0 6-5 10-12 10h-8l3-19z"/>
</svg>